<?xml version="1.0" encoding="UTF-8"?>
<svg version="1.1" xmlns="http://www.w3.org/2000/svg" width="500" height="500">
<path d="M0 0 C165 0 330 0 500 0 C500 165 500 330 500 500 C335 500 170 500 0 500 C0 335 0 170 0 0 Z " fill="#FEFEFE" transform="translate(0,0)"/>
<path d="M0 0 C15.67274664 -0.11687194 31.34537538 -0.20500682 47.01844978 -0.25906086 C54.2959768 -0.28482779 61.57323286 -0.31994884 68.85058594 -0.37719727 C75.19455298 -0.42707922 81.53832375 -0.45930202 87.88248146 -0.47044247 C91.2408725 -0.47695335 94.59870213 -0.49222255 97.95691299 -0.52865028 C101.70875696 -0.56490642 105.45943503 -0.56994644 109.21142578 -0.56762695 C110.32129349 -0.58560333 111.43116119 -0.60357971 112.57466125 -0.62210083 C120.98016048 -0.56581097 120.98016048 -0.56581097 124.61178589 2.34797668 C127 5 127 5 129 8 C128.62714841 14.92148141 127.06698492 21.46880352 125.4375 28.1875 C122.70398773 39.73667466 120.19010603 51.32338131 117.75 62.9375 C117.57773895 63.75415131 117.40547791 64.57080261 117.22799683 65.41220093 C116.72816953 67.78350997 116.23089536 70.15534032 115.734375 72.52734375 C115.57695328 73.27382675 115.41953156 74.02030975 115.25733948 74.78941345 C114.39012476 78.94769538 113.66012473 83.10097897 113.015625 87.30078125 C112.25625071 91.55498463 111.08629039 94.09757481 108 97.25 C107.29875 97.99765625 106.5975 98.7453125 105.875 99.515625 C97.73574389 106.54900392 88.79979935 111.38343814 79.125 116 C77.90339642 116.60235902 76.68204081 117.20522122 75.4609375 117.80859375 C73.72070312 118.64583984 73.72070312 118.64583984 71.9453125 119.5 C70.89875488 120.0053125 69.85219727 120.510625 68.77392578 121.03125 C65.90567312 122.03294218 64.7699728 122.11629488 62 121 C61.67 119.68 61.34 118.36 61 117 C60.34 117 59.68 117 59 117 C65.13234284 131.22703539 78.90985502 136.22802792 92.27929688 142.36230469 C104.55107416 148.01314285 117.9013922 154.68361563 123.9375 167.5625 C125.90201094 173.61367876 125.58984719 180.7338311 125 187 C124.34 187.66 123.68 188.32 123 189 C122.85304688 188.31035156 122.70609375 187.62070312 122.5546875 186.91015625 C119.72644353 175.06078926 114.16352051 167.69839121 104 161 C97.08808919 156.93096447 89.88274523 153.38478904 82.6640625 149.8984375 C60.72317464 139.27523197 60.72317464 139.27523197 57 129 C56.6321858 125.61707731 56.6878877 122.38468449 57 119 C56.401875 119.33 55.80375 119.66 55.1875 120 C53 121 53 121 50 121 C49.03888216 117.35489502 48.08162202 113.70878721 47.125 110.0625 C46.85558594 109.04091797 46.58617187 108.01933594 46.30859375 106.96679688 C44.74550909 101.00038834 43.2953535 95.0303107 42 89 C42.95890137 88.53625977 43.91780273 88.07251953 44.90576172 87.59472656 C48.46389512 85.86998531 52.01404547 84.1293369 55.56201172 82.38378906 C57.0982927 81.63072923 58.6367008 80.8819927 60.17724609 80.13769531 C62.39214195 79.0666625 64.59890583 77.98028058 66.8046875 76.890625 C67.49432587 76.56128967 68.18396423 76.23195435 68.89450073 75.89263916 C71.4169843 74.63228975 73.57122149 73.54858427 75.328125 71.30078125 C76.38900723 67.6678764 77.19205356 64.00470934 77.9453125 60.296875 C78.2074202 59.04019012 78.2074202 59.04019012 78.474823 57.75811768 C79.03010846 55.0897982 79.57764917 52.41995719 80.125 49.75 C80.50079203 47.93739418 80.87708831 46.12489282 81.25390625 44.3125 C82.17607165 39.87635631 83.08774267 35.43823797 84 31 C74.1 31 64.2 31 54 31 C53.278125 34.691875 52.55625 38.38375 51.8125 42.1875 C50.8900675 46.79479959 49.94771587 51.39783925 49 56 C48.78649902 57.04430176 48.57299805 58.08860352 48.35302734 59.16455078 C47.75718162 62.03162022 47.1338546 64.89112368 46.5 67.75 C46.32315674 68.61133545 46.14631348 69.4726709 45.96411133 70.36010742 C44.14705451 78.29710704 39.67270052 81.81016479 33 86 C33.20496094 86.74765625 33.40992188 87.4953125 33.62109375 88.265625 C33.89050781 89.25046875 34.15992188 90.2353125 34.4375 91.25 C34.70433594 92.22453125 34.97117187 93.1990625 35.24609375 94.203125 C35.49488281 95.12609375 35.74367188 96.0490625 36 97 C36.19722656 97.61359375 36.39445312 98.2271875 36.59765625 98.859375 C38.13680617 107.04825029 35.98630088 114.88180563 34.25 122.875 C33.84164917 124.79662964 33.84164917 124.79662964 33.42504883 126.75708008 C32.62539434 130.50665502 31.81421914 134.25356455 31 138 C30.7819873 139.01400879 30.56397461 140.02801758 30.33935547 141.07275391 C29.79339168 143.61204721 29.24258713 146.15018713 28.6875 148.6875 C28.44918457 149.78070557 28.44918457 149.78070557 28.20605469 150.89599609 C27.12070953 155.75858094 27.12070953 155.75858094 26 158 C13.13 158 0.26 158 -13 158 C-12.31924101 151.87316913 -11.50224341 146.13503011 -10.14453125 140.171875 C-9.96245117 139.35318436 -9.78037109 138.53449371 -9.59277344 137.69099426 C-9.20427408 135.9457424 -8.8137347 134.20094358 -8.42129517 132.45657349 C-7.38561072 127.85214129 -6.36493802 123.244384 -5.34375 118.63671875 C-5.14038528 117.72055283 -4.93702057 116.8043869 -4.72749329 115.86045837 C-3.01207207 108.10958709 -1.39310927 100.34205282 0.1875 92.5625 C2.66058688 80.43819792 5.41201719 68.39082732 8.22363281 56.34130859 C9.62857127 50.29477156 11.00858157 44.24284834 12.375 38.1875 C12.63796875 37.04200684 12.9009375 35.89651367 13.171875 34.71630859 C13.41164063 33.64848145 13.65140625 32.5806543 13.8984375 31.48046875 C14.11161621 30.54098389 14.32479492 29.60149902 14.54443359 28.63354492 C15.31499572 24.17906813 15.64548339 21.91997049 12.98828125 18.1328125 C12.10761833 17.12029986 11.21509378 16.11801234 10.3125 15.125 C9.39288211 14.06914242 8.47489946 13.01185827 7.55859375 11.953125 C6.71425781 10.97859375 5.86992187 10.0040625 5 9 C0 2.62637363 0 2.62637363 0 0 Z " fill="#0C74B0" transform="translate(243,145)"/>
<path d="M0 0 C20.25188806 -2.27015763 20.25188806 -2.27015763 26.21777344 1.34326172 C29.89325582 4.77547055 32.44668519 8.85642764 34.91601562 13.20605469 C36.28755307 15.47588738 38.02614537 17.2352415 39.875 19.125 C41.60792534 21.53006077 42.01298352 22.70729025 41.87988281 25.70800781 C41.6067627 27.25246582 41.6067627 27.25246582 41.328125 28.828125 C41.02334229 30.56570068 41.02334229 30.56570068 40.71240234 32.33837891 C39.52233386 38.45511881 38.23247936 44.54329366 36.875 50.625 C36.56820382 52.01402646 36.26165079 53.40310665 35.95532227 54.79223633 C33.51205892 65.83810216 30.97523615 76.8624162 28.43005371 87.88516235 C25.74233975 99.53652249 23.23776841 111.2148884 20.90209961 122.94213867 C20.67917236 124.05049072 20.45624512 125.15884277 20.2265625 126.30078125 C19.94159912 127.74191284 19.94159912 127.74191284 19.65087891 129.2121582 C18.94919809 132.21759452 18.01712144 135.08767635 17 138 C13.08604463 135.153487 10.0757663 131.92557015 6.953125 128.2734375 C4.83965499 125.81335841 2.67573008 123.40514379 0.5 121 C-0.2528125 120.16339844 -1.005625 119.32679688 -1.78125 118.46484375 C-3.21587071 116.87110138 -4.65319134 115.27978343 -6.09375 113.69140625 C-6.7228125 112.98886719 -7.351875 112.28632813 -8 111.5625 C-8.556875 110.94503906 -9.11375 110.32757813 -9.6875 109.69140625 C-11 108 -11 108 -12 105 C-0.45 105 11.1 105 23 105 C23 84.87 23 64.74 23 44 C20.48375 50.125625 17.9675 56.25125 15.375 62.5625 C14.59431152 64.46201416 13.81362305 66.36152832 13.00927734 68.31860352 C12.36802009 69.88031199 11.72690171 71.44207749 11.0859375 73.00390625 C10.56959244 74.26129356 10.56959244 74.26129356 10.04281616 75.54408264 C8.40025648 79.55171568 6.76979734 83.56330666 5.17285156 87.58935547 C4.75599594 88.64025612 4.75599594 88.64025612 4.33071899 89.71238708 C3.58959534 91.58702338 2.85251051 93.46325498 2.11572266 95.33959961 C1 98 1 98 0 99 C-2.0708472 99.1584265 -4.14678029 99.25124422 -6.22265625 99.31640625 C-8.11274414 99.37924805 -8.11274414 99.37924805 -10.04101562 99.44335938 C-11.38150736 99.48317596 -12.7220022 99.52288814 -14.0625 99.5625 C-15.40691523 99.60568042 -16.7513166 99.64929456 -18.09570312 99.69335938 C-21.3970234 99.79985358 -24.69842236 99.9018646 -28 100 C-26.69540214 101.40528111 -25.39080057 102.81055876 -24.08618164 104.21582031 C-22.98345934 105.40917062 -21.88500325 106.60647678 -20.79077148 107.80761719 C-18.43177596 110.39560395 -16.08440582 112.92014941 -13.5390625 115.328125 C-11.64419049 117.17056972 -10.27239563 118.68971652 -9 121 C-11.03541117 129.16667021 -14.84286036 136.85997974 -18.1875 144.5625 C-20.105625 148.996875 -22.02375 153.43125 -24 158 C-38.19 158 -52.38 158 -67 158 C-63.62550607 147.87651822 -63.62550607 147.87651822 -61.89379883 143.8996582 C-61.50457245 143.00041122 -61.11534607 142.10116425 -60.71432495 141.17466736 C-60.29941803 140.22628494 -59.88451111 139.27790253 -59.45703125 138.30078125 C-59.01666534 137.2853273 -58.57629944 136.26987335 -58.12258911 135.22364807 C-57.17929566 133.04903964 -56.23440607 130.875123 -55.28805542 128.70184326 C-52.7746718 122.92861392 -50.27415636 117.14981772 -47.7734375 111.37109375 C-47.27373947 110.21691956 -46.77404144 109.06274536 -46.25920105 107.87359619 C-42.08997993 98.23306337 -37.99391804 88.56343425 -33.9375 78.875 C-27.63091254 63.82473686 -21.23815432 48.81230916 -14.8125 33.8125 C-14.35793427 32.75021179 -13.90336853 31.68792358 -13.43502808 30.59344482 C-12.13126426 27.54737063 -10.82571287 24.50206934 -9.51953125 21.45703125 C-9.13683075 20.56273911 -8.75413025 19.66844696 -8.35983276 18.74705505 C-5.65824827 12.45855633 -2.85290228 6.22123334 0 0 Z " fill="#030303" transform="translate(211,145)"/>
<path d="M0 0 C1.04688297 1.57032446 2.0845843 3.15080922 3.0078125 4.796875 C8.91605772 15.12597503 17.81393073 19.81171791 28.25 24.9375 C59.1357253 40.20743026 59.1357253 40.20743026 65.0625 52.5 C67.07902152 59.17632126 66.56930651 67.12396035 66 74 C65.34 74.66 64.68 75.32 64 76 C63.79246094 75.16597656 63.58492188 74.33195312 63.37109375 73.47265625 C58.94719244 57.31338496 48.58135368 48.64568384 34.4387207 40.55126953 C31.69100792 39.00197793 28.94011641 37.45852975 26.1875 35.91796875 C1.33281215 21.99843645 1.33281215 21.99843645 -2 12 C-2.25343766 7.43812214 -2.00169177 4.12848928 0 0 Z " fill="#28AADB" transform="translate(297,271)"/>
<path d="M0 0 C1.26660973 1.8999146 2.48265955 3.83537229 3.625 5.8125 C10.6211501 15.20206987 22.36285348 19.27585381 32.60644531 24.27099609 C60.21191321 37.8452573 60.21191321 37.8452573 66 51 C67.27073209 54.80355184 67.18369975 58.65754358 67.1875 62.625 C67.19974609 63.305625 67.21199219 63.98625 67.22460938 64.6875 C67.22986355 66.45990756 67.12215906 68.2317994 67 70 C66.34 70.66 65.68 71.32 65 72 C64.85304688 71.31035156 64.70609375 70.62070312 64.5546875 69.91015625 C61.72644353 58.06078926 56.16352051 50.69839121 46 44 C39.08808919 39.93096447 31.88274523 36.38478904 24.6640625 32.8984375 C2.95866206 22.38924883 2.95866206 22.38924883 -1 12 C-1.64589123 8.3286183 -1.92468956 4.72444373 -2 1 C-1.34 0.67 -0.68 0.34 0 0 Z " fill="#27A9DA" transform="translate(301,262)"/>
<path d="M0 0 C2.4322247 3.64833705 2.44201623 5.24241303 1.8515625 9.46484375 C-1.85390196 20.49624941 -15.01711546 27.60451281 -24.7421875 32.5625 C-27.11529328 33.71762102 -29.49298499 34.86336458 -31.875 36 C-33.09660358 36.60235902 -34.31795919 37.20522122 -35.5390625 37.80859375 C-36.69921875 38.36675781 -37.859375 38.92492187 -39.0546875 39.5 C-40.10124512 40.0053125 -41.14780273 40.510625 -42.22607422 41.03125 C-45.10369293 42.03621313 -46.25348488 42.24477252 -49 41 C-50.72101535 38.41847698 -51 37.15081975 -51 34 C-50.36199463 33.71914551 -49.72398926 33.43829102 -49.06665039 33.14892578 C-32.95072661 26.0200815 -32.95072661 26.0200815 -17.4375 17.6875 C-16.77951416 17.30416504 -16.12152832 16.92083008 -15.44360352 16.52587891 C-8.24607248 12.17622474 -2.76321465 8.1271019 0 0 Z " fill="#969899" transform="translate(354,225)"/>
<path d="M0 0 C2.52692114 2.52692114 2.38257153 3.61193147 2.5 7.125 C2.36838992 13.4258324 0.34532969 16.60764293 -4 21 C-4.53367187 21.57105469 -5.06734375 22.14210937 -5.6171875 22.73046875 C-13.96591327 30.83800911 -27.87058871 38.75625199 -39 42 C-43.35370012 41.58383749 -45.13778462 40.28624728 -48 37 C-44.69846773 34.97584848 -41.36681792 33.12759491 -37.90234375 31.3984375 C-15.57301405 21.05339007 -15.57301405 21.05339007 -0.625 2.5625 C-0.41875 1.716875 -0.2125 0.87125 0 0 Z " fill="#959595" transform="translate(357,233)"/>
<path d="M0 0 C1.98 0 3.96 0 6 0 C7.65 4.29 9.3 8.58 11 13 C11.144375 11.040625 11.28875 9.08125 11.4375 7.0625 C11.875 1.125 11.875 1.125 13 0 C17.53649501 -0.504055 21.61049788 -0.74322206 25.6875 1.4375 C27.70534494 5.37710202 27.21541704 8.81527297 26 13 C23.75410675 15.99452434 22.55130633 16.81623122 19 18 C16.87222271 17.93824393 14.74608416 17.80458836 12.625 17.625 C11.50351563 17.53476562 10.38203125 17.44453125 9.2265625 17.3515625 C6.42900511 17.0467439 3.74543908 16.60667006 1 16 C1 16.66 1 17.32 1 18 C-0.98 18 -2.96 18 -5 18 C-2.96875 2.96875 -2.96875 2.96875 0 0 Z " fill="#0A0A0A" transform="translate(227,310)"/>
<path d="M0 0 C1.98 0 3.96 0 6 0 C7.65 4.29 9.3 8.58 11 13 C11.33 9.04 11.66 5.08 12 1 C12.33 1 12.66 1 13 1 C13 6.61 13 12.22 13 18 C7.06 17.01 7.06 17.01 1 16 C1 16.66 1 17.32 1 18 C-0.98 18 -2.96 18 -5 18 C-2.96875 2.96875 -2.96875 2.96875 0 0 Z " fill="#191919" transform="translate(227,310)"/>
<path d="M0 0 C0.33 0 0.66 0 1 0 C1.09796875 0.65226562 1.1959375 1.30453125 1.296875 1.9765625 C2.63908785 9.82156517 4.74934991 14.52132669 11.25 19.375 C16.14060006 22.64255004 21.26475833 25.23075734 26.53637695 27.80810547 C57.61788909 43.0170498 57.61788909 43.0170498 65.046875 56.05859375 C66.94642288 61.92072306 65.87910322 68.00611441 65 74 C64.67 74 64.34 74 64 74 C63.90203125 72.91460937 63.8040625 71.82921875 63.703125 70.7109375 C63.55295324 69.26553435 63.40186268 67.82022647 63.25 66.375 C63.1571875 65.30572266 63.1571875 65.30572266 63.0625 64.21484375 C62.50802163 59.17833188 61.18977074 56.08076816 58 52 C57.30970703 51.10861328 57.30970703 51.10861328 56.60546875 50.19921875 C49.41968899 42.53834611 39.57403539 37.76950135 30.296875 33.109375 C3.79915395 19.78956147 3.79915395 19.78956147 -1 8 C-1.09046746 5.15265559 -0.53649044 2.8287678 0 0 Z " fill="#E7F5FB" transform="translate(299,266)"/>
<path d="M0 0 C0.66 0 1.32 0 2 0 C1.25757513 7.43500844 -2.6302347 11.10556662 -8 16 C-19.31370788 24.52522019 -32.36376554 30.69954594 -45 37 C-43.35 38.65 -41.7 40.3 -40 42 C-40.66 42.66 -41.32 43.32 -42 44 C-43.46512126 42.75796305 -44.92185645 41.50602944 -46.375 40.25 C-47.18710937 39.55390625 -47.99921875 38.8578125 -48.8359375 38.140625 C-50.88804734 36.11074017 -52.00736361 34.68339069 -53 32 C-53 31.01 -53 30.02 -53 29 C-52.34 29 -51.68 29 -51 29 C-50.34 30.32 -49.68 31.64 -49 33 C-42.75717555 31.99746124 -37.46430389 29.0970933 -31.8125 26.375 C-30.72646484 25.86582031 -29.64042969 25.35664063 -28.52148438 24.83203125 C-19.65082766 20.58050929 -10.93696468 15.87033262 -4.4375 8.3125 C-3.47650391 7.22388672 -3.47650391 7.22388672 -2.49609375 6.11328125 C-1.00999804 4.01412256 -0.41443967 2.5150243 0 0 Z " fill="#EFEFEF" transform="translate(355,233)"/>
<path d="M0 0 C1.65 0 3.3 0 5 0 C3.07289294 12.66970387 3.07289294 12.66970387 1 18 C-1.31 18 -3.62 18 -6 18 C-6.83919398 15.73117913 -7.67151724 13.46022973 -8.5 11.1875 C-8.73847656 10.54490234 -8.97695313 9.90230469 -9.22265625 9.24023438 C-10.27068746 6.35066261 -11 4.09923939 -11 1 C-9.02 1 -7.04 1 -5 1 C-4.34 2.98 -3.68 4.96 -3 7 C-2.67 7 -2.34 7 -2 7 C-1.34 4.69 -0.68 2.38 0 0 Z " fill="#0C0C0C" transform="translate(266,310)"/>
<path d="M0 0 C1.65 0 3.3 0 5 0 C5 5.94 5 11.88 5 18 C3.35 18 1.7 18 0 18 C0 12.06 0 6.12 0 0 Z " fill="#070707" transform="translate(273,310)"/>
<path d="M0 0 C8.25324665 2.90096543 14.755931 9.52586513 19.046875 17.05859375 C20.94642288 22.92072306 19.87910322 29.00611441 19 35 C18.67 35 18.34 35 18 35 C17.85304688 33.37191406 17.85304688 33.37191406 17.703125 31.7109375 C17.55295324 30.26553435 17.40186268 28.82022647 17.25 27.375 C17.188125 26.66214844 17.12625 25.94929688 17.0625 25.21484375 C16.13272514 16.76938881 11.16216259 11.47306053 5 6 C3.04660354 4.54243284 1.08409189 3.27078774 -1 2 C-0.67 1.34 -0.34 0.68 0 0 Z " fill="#D3F2FB" transform="translate(345,305)"/>
<path d="M0 0 C0.33 0 0.66 0 1 0 C1.09796875 0.65226562 1.1959375 1.30453125 1.296875 1.9765625 C2.44603512 8.69320527 3.71813476 13.49953125 9.37890625 17.8125 C11.12140296 19.02996495 12.8812623 20.22308135 14.66015625 21.38671875 C16.69887187 22.79237743 18.32867447 24.18620082 20 26 C14.39219099 26 9.86713088 21.77219203 5.92578125 18.03125 C2.52398869 14.32279689 -0.11622724 11.08169338 -1 6 C-0.625 2.625 -0.625 2.625 0 0 Z " fill="#E7F3F8" transform="translate(299,266)"/>
<path d="M0 0 C0.66 0 1.32 0 2 0 C2.268125 0.61875 2.53625 1.2375 2.8125 1.875 C3.95556848 4.2995233 3.95556848 4.2995233 7 6 C6.67 6.99 6.34 7.98 6 9 C7.175625 9.433125 7.175625 9.433125 8.375 9.875 C11 11 11 11 13 13 C12.34 13.66 11.68 14.32 11 15 C9.53487874 13.75796305 8.07814355 12.50602944 6.625 11.25 C5.81289063 10.55390625 5.00078125 9.8578125 4.1640625 9.140625 C2.11195266 7.11074017 0.99263639 5.68339069 0 3 C0 2.01 0 1.02 0 0 Z " fill="#F1F4F5" transform="translate(302,262)"/>
<path d="M0 0 C1.32 0.33 2.64 0.66 4 1 C4.625 2.875 4.625 2.875 5 5 C4.34 5.66 3.68 6.32 3 7 C2.01 7 1.02 7 0 7 C0 4.69 0 2.38 0 0 Z " fill="#E1E1E1" transform="translate(244,315)"/>
<path d="M0 0 C0.33 0 0.66 0 1 0 C1.12117188 0.67546875 1.24234375 1.3509375 1.3671875 2.046875 C1.53476562 2.93890625 1.70234375 3.8309375 1.875 4.75 C2.03742188 5.63171875 2.19984375 6.5134375 2.3671875 7.421875 C2.96796264 9.86947744 3.77997117 11.80599857 5 14 C4.01 14 3.02 14 2 14 C-1.27137992 8.76579213 -1.10643764 5.83394389 0 0 Z " fill="#D6E8F2" transform="translate(299,266)"/>
<path d="M0 0 C1.98 0.495 1.98 0.495 4 1 C3.67 2.32 3.34 3.64 3 5 C1.68 4.67 0.36 4.34 -1 4 C-0.67 2.68 -0.34 1.36 0 0 Z " fill="#1D1D1D" transform="translate(274,304)"/>
<path d="M0 0 C0.66 0 1.32 0 2 0 C1.67 4.95 1.34 9.9 1 15 C0.67 15 0.34 15 0 15 C-0.19390729 12.68802845 -0.37996367 10.3753971 -0.5625 8.0625 C-0.71912109 6.13083984 -0.71912109 6.13083984 -0.87890625 4.16015625 C-0.91886719 3.11730469 -0.95882813 2.07445312 -1 1 C-0.67 0.67 -0.34 0.34 0 0 Z " fill="#99EAFE" transform="translate(363,325)"/>
<path d="M0 0 C2.79872437 2.52788007 4.45773019 4.20411134 5 8 C4.01 8.495 4.01 8.495 3 9 C0 3.375 0 3.375 0 0 Z " fill="#DCF7FE" transform="translate(359,317)"/>
</svg>
