<?xml version="1.0" encoding="UTF-8"?>
<svg version="1.1" xmlns="http://www.w3.org/2000/svg" width="500" height="500">
<path d="M0 0 C165 0 330 0 500 0 C500 165 500 330 500 500 C335 500 170 500 0 500 C0 335 0 170 0 0 Z " fill="#E3E3E3" transform="translate(0,0)"/>
<path d="M0 0 C4.57875 -0.0825 9.1575 -0.165 13.875 -0.25 C15.29796387 -0.28641602 16.72092773 -0.32283203 18.18701172 -0.36035156 C28.91912704 -0.45337423 37.32154644 1.40139123 45.23828125 8.96484375 C50.71996757 15.29734612 52.82182999 21.62805968 52.4140625 29.9765625 C51.34136086 37.80930847 48.88926548 44.22551354 42.93359375 49.56640625 C36.37194721 54.43130379 30.37454675 56.1332217 22.265625 56.09765625 C20.51427246 56.09390991 20.51427246 56.09390991 18.72753906 56.09008789 C17.24995117 56.08098389 15.77236328 56.07187988 14.25 56.0625 C9.5475 56.041875 4.845 56.02125 0 56 C0 37.52 0 19.04 0 0 Z " fill="#050505" transform="translate(195,200)"/>
<path d="M0 0 C4.29 0 8.58 0 13 0 C17.26989417 9.08488122 21.00321988 18.3434172 24.67602539 27.68066406 C25.69155317 30.26029581 26.71367096 32.83725003 27.73632812 35.4140625 C28.39102097 37.07276043 29.04533137 38.73160938 29.69921875 40.390625 C30.0013176 41.15119202 30.30341644 41.91175903 30.6146698 42.69537354 C32.33415091 47.08307597 33.78001928 51.44730664 35 56 C30.38 56 25.76 56 21 56 C20.01 52.7 19.02 49.4 18 46 C10.41 46 2.82 46 -5 46 C-5.33 47.65 -5.66 49.3 -6 51 C-6.99 53.475 -6.99 53.475 -8 56 C-12.62 56 -17.24 56 -22 56 C-17.42141678 43.57963228 -12.56130923 31.28198108 -7.625 19 C-6.88134704 17.14589885 -6.13785652 15.29173255 -5.39453125 13.4375 C-3.59821932 8.95758259 -1.79973466 4.47854342 0 0 Z " fill="#050505" transform="translate(136,200)"/>
<path d="M0 0 C4.62 0 9.24 0 14 0 C14.38857178 1.02472412 14.77714355 2.04944824 15.17749023 3.10522461 C16.61536867 6.89499636 18.05677418 10.68341824 19.49926758 14.47143555 C20.12393456 16.11331979 20.74763524 17.755572 21.37036133 19.39819336 C22.26391864 21.75471084 23.16090534 24.10989739 24.05859375 26.46484375 C24.3377916 27.20339096 24.61698944 27.94193817 24.90464783 28.7028656 C26.0183558 32.10810821 26.0183558 32.10810821 28 35 C28.58285767 33.46291382 28.58285767 33.46291382 29.17749023 31.89477539 C30.61536867 28.10500364 32.05677418 24.31658176 33.49926758 20.52856445 C34.12393456 18.88668021 34.74763524 17.244428 35.37036133 15.60180664 C36.26391864 13.24528916 37.16090534 10.89010261 38.05859375 8.53515625 C38.3377916 7.79660904 38.61698944 7.05806183 38.90464783 6.2971344 C40.88612829 1.11387171 40.88612829 1.11387171 42 0 C44.18639453 -0.07258946 46.37500389 -0.08373783 48.5625 -0.0625 C50.35880859 -0.04896484 50.35880859 -0.04896484 52.19140625 -0.03515625 C53.11824219 -0.02355469 54.04507813 -0.01195312 55 0 C53.01303013 6.99167297 50.6666318 13.76256256 48.0234375 20.53125 C47.65272125 21.48898315 47.282005 22.44671631 46.90005493 23.43347168 C46.12360633 25.43745031 45.34537687 27.4407398 44.56542969 29.44335938 C43.36796015 32.51807607 42.17570051 35.59477316 40.984375 38.671875 C40.22685942 40.62511518 39.46905731 42.57824426 38.7109375 44.53125 C38.3536557 45.45200317 37.9963739 46.37275635 37.62826538 47.32141113 C37.2976712 48.16989624 36.96707703 49.01838135 36.62646484 49.89257812 C36.3357309 50.63963013 36.04499695 51.38668213 35.74545288 52.15637207 C35 54 35 54 34 56 C29.71 56 25.42 56 21 56 C18.26017953 48.84683397 15.52175639 41.69313608 12.78582001 34.53848362 C11.51548442 31.21664224 10.24452737 27.89504139 8.97216797 24.57397461 C7.51086387 20.75965078 6.05223113 16.9443104 4.59375 13.12890625 C4.13440063 11.93100967 3.67505127 10.7331131 3.20178223 9.49891663 C2.78134644 8.3978508 2.36091064 7.29678497 1.92773438 6.16235352 C1.55467163 5.18750504 1.18160889 4.21265656 0.79724121 3.20826721 C0 1 0 1 0 0 Z " fill="#044CAE" transform="translate(259,231)"/>
<path d="M0 0 C4.29 0 8.58 0 13 0 C13 18.48 13 36.96 13 56 C8.71 56 4.42 56 0 56 C0 37.52 0 19.04 0 0 Z " fill="#084FAE" transform="translate(338,231)"/>
<path d="M0 0 C16.78625954 0 16.78625954 0 21.64453125 4.53515625 C25.81483424 9.98862939 26.74853683 13.19807833 26 20 C24.73630952 24.59596983 22.740172 27.98321026 18.625 30.5 C14 32 14 32 0 32 C0 21.44 0 10.88 0 0 Z " fill="#E1E1E1" transform="translate(208,212)"/>
<path d="M0 0 C3.03374276 0.61077564 5.2048142 1.55588672 7.75 3.3125 C8.36359375 3.72113281 8.9771875 4.12976563 9.609375 4.55078125 C11 6 11 6 11 10 C9.35546875 11.703125 9.35546875 11.703125 7.1875 13.25 C6.47980469 13.77078125 5.77210938 14.2915625 5.04296875 14.828125 C3 16 3 16 0 16 C0 14.68 0 13.36 0 12 C0.66 11.67 1.32 11.34 2 11 C-72.745 10.505 -72.745 10.505 -149 10 C-149 8.68 -149 7.36 -149 6 C-99.17 5.67 -49.34 5.34 2 5 C1.01 4.505 1.01 4.505 0 4 C0 2.68 0 1.36 0 0 Z " fill="#020202" transform="translate(247,263)"/>
<path d="M0 0 C-0.33 1.32 -0.66 2.64 -1 4 C51.47 4.495 51.47 4.495 105 5 C105 6.65 105 8.3 105 10 C70.02 10.33 35.04 10.66 -1 11 C-0.67 12.32 -0.34 13.64 0 15 C-5.03985731 14.55530671 -7.37634988 12.28656638 -11 9 C-10.74682781 5.58217544 -9.71625376 4.72255923 -7.1875 2.25 C-4 0 -4 0 0 0 Z " fill="#282828" transform="translate(270,204)"/>
<path d="M0 0 C2.74057325 3.27100678 4.18058075 6.58477621 5.6875 10.5625 C6.34298828 12.26599609 6.34298828 12.26599609 7.01171875 14.00390625 C8 17 8 17 8 20 C3.38 20 -1.24 20 -6 20 C-5.50104522 12.84831485 -2.68436185 6.58708719 0 0 Z " fill="#D9D9D9" transform="translate(142,216)"/>
<path d="M0 0 C2.4375 1.5625 2.4375 1.5625 4 4 C3.9375 7.625 3.9375 7.625 3 11 C-0.47042703 13.31361802 -1.91834173 13.51020728 -6 13 C-8.59814888 10.74827097 -8.95716454 9.34982295 -9.375 5.9375 C-9 3 -9 3 -7.875 1.125 C-5.07553259 -0.55468045 -3.20195936 -0.45742277 0 0 Z " fill="#171717" transform="translate(220,281)"/>
<path d="M0 0 C0.99 0 1.98 0 3 0 C3.66 1.65 4.32 3.3 5 5 C5.433125 4.175 5.86625 3.35 6.3125 2.5 C6.869375 1.675 7.42625 0.85 8 0 C8.99 0 9.98 0 11 0 C11.66 1.98 12.32 3.96 13 6 C13.66 4.02 14.32 2.04 15 0 C15.99 0 16.98 0 18 0 C17.52060632 4.71403788 17.03165952 8.66579301 15 13 C13.68 13 12.36 13 11 13 C10.34 11.02 9.68 9.04 9 7 C8.34 8.98 7.68 10.96 7 13 C5.68 13 4.36 13 3 13 C2.01 8.71 1.02 4.42 0 0 Z " fill="#1A1A1A" transform="translate(225,281)"/>
<path d="M0 0 C3.875 0.375 3.875 0.375 5.875 1.375 C5.545 2.695 5.215 4.015 4.875 5.375 C4.215 5.045 3.555 4.715 2.875 4.375 C0.87539988 4.335008 -1.12547242 4.33153201 -3.125 4.375 C-3.125 7.345 -3.125 10.315 -3.125 13.375 C-1.145 13.375 0.835 13.375 2.875 13.375 C3.205 12.385 3.535 11.395 3.875 10.375 C2.555 10.375 1.235 10.375 -0.125 10.375 C-0.125 9.715 -0.125 9.055 -0.125 8.375 C2.185 8.375 4.495 8.375 6.875 8.375 C6.875 11.345 6.875 14.315 6.875 17.375 C5.555 17.045 4.235 16.715 2.875 16.375 C2.545 16.705 2.215 17.035 1.875 17.375 C-0.9375 17.75 -0.9375 17.75 -4.125 17.375 C-7.2590025 14.65336625 -8.03720969 12.98953214 -8.625 8.875 C-7.81519561 3.20636926 -5.91655887 0.09681642 0 0 Z " fill="#131313" transform="translate(191.125,276.625)"/>
<path d="M0 0 C1.875 1.0625 1.875 1.0625 3 3 C3.63316583 8.90954774 3.63316583 8.90954774 1.875 11.9375 C-0.88980433 13.50422245 -2.88188517 13.38976435 -6 13 C-7.875 11.9375 -7.875 11.9375 -9 10 C-9.63316583 4.09045226 -9.63316583 4.09045226 -7.875 1.0625 C-5.11019567 -0.50422245 -3.11811483 -0.38976435 0 0 Z " fill="#0E0E0E" transform="translate(301,193)"/>
<path d="M0 0 C3.0625 0.25 3.0625 0.25 6.0625 2.25 C6.25 4.875 6.25 4.875 6.0625 7.25 C3.4225 7.25 0.7825 7.25 -1.9375 7.25 C-1.9375 8.24 -1.9375 9.23 -1.9375 10.25 C1.5275 9.755 1.5275 9.755 5.0625 9.25 C5.0625 10.24 5.0625 11.23 5.0625 12.25 C4.0625 13.25 4.0625 13.25 0.6875 13.5625 C-2.9375 13.25 -2.9375 13.25 -4.9375 11.6875 C-6.35720326 8.22697331 -5.80051515 5.83483216 -4.9375 2.25 C-2.9375 0.25 -2.9375 0.25 0 0 Z " fill="#333333" transform="translate(168.9375,280.75)"/>
<path d="M0 0 C1.875 1.25 1.875 1.25 3 3 C3 4.32 3 5.64 3 7 C0.03 7 -2.94 7 -6 7 C-5.67 7.66 -5.34 8.32 -5 9 C-2.69 9 -0.38 9 2 9 C2 9.99 2 10.98 2 12 C1 13 1 13 -2.375 13.3125 C-6 13 -6 13 -7.9375 11.375 C-9.295454 8.33957342 -9.42030443 6.29238472 -9 3 C-6.79086995 -0.68188342 -4.01844539 -0.50230567 0 0 Z " fill="#171717" transform="translate(354,193)"/>
<path d="M0 0 C1.875 1.25 1.875 1.25 3 3 C3 4.32 3 5.64 3 7 C0.03 7 -2.94 7 -6 7 C-5.67 7.66 -5.34 8.32 -5 9 C-2.69 9 -0.38 9 2 9 C2 9.99 2 10.98 2 12 C1 13 1 13 -2.375 13.3125 C-6 13 -6 13 -7.9375 11.375 C-9.295454 8.33957342 -9.42030443 6.29238472 -9 3 C-6.79086995 -0.68188342 -4.01844539 -0.50230567 0 0 Z " fill="#171717" transform="translate(326,193)"/>
<path d="M0 0 C3.63 0 7.26 0 11 0 C11 0.99 11 1.98 11 3 C8.69 3 6.38 3 4 3 C4 4.32 4 5.64 4 7 C5.98 7 7.96 7 10 7 C10 7.99 10 8.98 10 10 C8.02 10 6.04 10 4 10 C4 12.31 4 14.62 4 17 C2.68 17 1.36 17 0 17 C0 11.39 0 5.78 0 0 Z " fill="#1B1B1B" transform="translate(100,277)"/>
<path d="M0 0 C3.63 0 7.26 0 11 0 C11 0.99 11 1.98 11 3 C8.36 3 5.72 3 3 3 C3 4.32 3 5.64 3 7 C5.31 7 7.62 7 10 7 C10 7.99 10 8.98 10 10 C7.69 10 5.38 10 3 10 C3 12.31 3 14.62 3 17 C2.01 17 1.02 17 0 17 C0 11.39 0 5.78 0 0 Z " fill="#0A0A0A" transform="translate(279,189)"/>
<path d="M0 0 C0.99 0 1.98 0 3 0 C3 3.3 3 6.6 3 10 C4.32 9.67 5.64 9.34 7 9 C7.33 6.03 7.66 3.06 8 0 C8.99 0 9.98 0 11 0 C11 4.29 11 8.58 11 13 C9.68 12.67 8.36 12.34 7 12 C6.67 12.33 6.34 12.66 6 13 C3.5 13.125 3.5 13.125 1 13 C0 12 0 12 -0.09765625 9.27734375 C-0.08605469 8.17519531 -0.07445312 7.07304687 -0.0625 5.9375 C-0.05347656 4.83277344 -0.04445312 3.72804688 -0.03515625 2.58984375 C-0.02355469 1.73519531 -0.01195312 0.88054687 0 0 Z " fill="#0E0E0E" transform="translate(139,281)"/>
<path d="M0 0 C0.99 0 1.98 0 3 0 C3 3.3 3 6.6 3 10 C4.32 9.67 5.64 9.34 7 9 C7.33 6.03 7.66 3.06 8 0 C8.99 0 9.98 0 11 0 C11 4.29 11 8.58 11 13 C9.68 12.67 8.36 12.34 7 12 C6.67 12.33 6.34 12.66 6 13 C3.5 13.125 3.5 13.125 1 13 C0 12 0 12 -0.09765625 9.27734375 C-0.08605469 8.17519531 -0.07445313 7.07304687 -0.0625 5.9375 C-0.05347656 4.83277344 -0.04445313 3.72804688 -0.03515625 2.58984375 C-0.02355469 1.73519531 -0.01195313 0.88054687 0 0 Z " fill="#0E0E0E" transform="translate(114,281)"/>
<path d="M0 0 C0.99 0 1.98 0 3 0 C3 0.99 3 1.98 3 3 C4.32 3 5.64 3 7 3 C7 3.99 7 4.98 7 6 C6.01 6 5.02 6 4 6 C4 8.31 4 10.62 4 13 C4.99 13 5.98 13 7 13 C7 13.99 7 14.98 7 16 C4.625 16.125 4.625 16.125 2 16 C0 14 0 14 -0.1953125 12.0546875 C-0.09765625 9.02734375 -0.09765625 9.02734375 0 6 C-0.66 6 -1.32 6 -2 6 C-2 5.01 -2 4.02 -2 3 C-1.34 3 -0.68 3 0 3 C0 2.01 0 1.02 0 0 Z " fill="#1E1E1E" transform="translate(129,278)"/>
<path d="M0 0 C1.32 0 2.64 0 4 0 C4.99 2.31 5.98 4.62 7 7 C7.99 4.69 8.98 2.38 10 0 C10.99 0 11.98 0 13 0 C12.52140759 1.60433809 12.04210442 3.20846416 11.5625 4.8125 C11.29566406 5.70582031 11.02882813 6.59914062 10.75390625 7.51953125 C10.19612127 9.35473055 9.60655425 11.18033726 9 13 C6.64453125 12.80859375 6.64453125 12.80859375 4 12 C2.63671875 9.78515625 2.63671875 9.78515625 1.6875 7.0625 C1.36136719 6.16660156 1.03523438 5.27070313 0.69921875 4.34765625 C0 2 0 2 0 0 Z " fill="#111111" transform="translate(330,193)"/>
<path d="M0 0 C2.64 0 5.28 0 8 0 C8 0.99 8 1.98 8 3 C7.01 3.33 6.02 3.66 5 4 C4.67 6.97 4.34 9.94 4 13 C2.68 13 1.36 13 0 13 C0 8.71 0 4.42 0 0 Z " fill="#232323" transform="translate(201,281)"/>
<path d="M0 0 C2.64 0 5.28 0 8 0 C8 0.99 8 1.98 8 3 C7.01 3.33 6.02 3.66 5 4 C4.67 6.97 4.34 9.94 4 13 C2.68 13 1.36 13 0 13 C0 8.71 0 4.42 0 0 Z " fill="#232323" transform="translate(307,193)"/>
<path d="M0 0 C0.99 0 1.98 0 3 0 C2.52060632 4.71403788 2.03165952 8.66579301 0 13 C-1.32 13 -2.64 13 -4 13 C-4.33 10.36 -4.66 7.72 -5 5 C-4.01 5.33 -3.02 5.66 -2 6 C-1.34 4.02 -0.68 2.04 0 0 Z " fill="#131313" transform="translate(240,281)"/>
<path d="M0 0 C2.64 0 5.28 0 8 0 C8 0.99 8 1.98 8 3 C6.68 3.33 5.36 3.66 4 4 C3.67 6.97 3.34 9.94 3 13 C2.01 13 1.02 13 0 13 C0 8.71 0 4.42 0 0 Z " fill="#121212" transform="translate(154,281)"/>
<path d="M0 0 C2.64 0 5.28 0 8 0 C8 0.99 8 1.98 8 3 C6.68 3.33 5.36 3.66 4 4 C3.67 6.97 3.34 9.94 3 13 C2.01 13 1.02 13 0 13 C0 8.71 0 4.42 0 0 Z " fill="#121212" transform="translate(360,193)"/>
<path d="M0 0 C0.99 0 1.98 0 3 0 C3 4.29 3 8.58 3 13 C0.03 12.505 0.03 12.505 -3 12 C-2.34 11.01 -1.68 10.02 -1 9 C-0.54605448 6.72087062 -0.54605448 6.72087062 -0.375 4.3125 C-0.30023438 3.50425781 -0.22546875 2.69601562 -0.1484375 1.86328125 C-0.09945312 1.24839844 -0.05046875 0.63351562 0 0 Z " fill="#030303" transform="translate(147,281)"/>
<path d="M0 0 C0.99 0 1.98 0 3 0 C3 4.29 3 8.58 3 13 C0.03 12.505 0.03 12.505 -3 12 C-2.34 11.01 -1.68 10.02 -1 9 C-0.54605448 6.72087062 -0.54605448 6.72087062 -0.375 4.3125 C-0.30023438 3.50425781 -0.22546875 2.69601562 -0.1484375 1.86328125 C-0.09945312 1.24839844 -0.05046875 0.63351562 0 0 Z " fill="#030303" transform="translate(122,281)"/>
<path d="M0 0 C1.67542976 0.28604898 3.34385343 0.61781233 5 1 C5 2.65 5 4.3 5 6 C3.34385343 6.38218767 1.67542976 6.71395102 0 7 C-1 6 -1 6 -1.125 3.5 C-1 1 -1 1 0 0 Z " fill="#D4D4D4" transform="translate(215,284)"/>
<path d="M0 0 C1.67542976 0.28604898 3.34385343 0.61781233 5 1 C5 2.65 5 4.3 5 6 C3.34385343 6.38218767 1.67542976 6.71395102 0 7 C-1 6 -1 6 -1.125 3.5 C-1 1 -1 1 0 0 Z " fill="#D9D9D9" transform="translate(296,196)"/>
<path d="M0 0 C2.31 0 4.62 0 7 0 C7 2.97 7 5.94 7 9 C6.01 9 5.02 9 4 9 C3.06576355 5.98968256 2.95550089 5.13349732 4 2 C2.68 2 1.36 2 0 2 C0 1.34 0 0.68 0 0 Z " fill="#060606" transform="translate(191,285)"/>
<path d="M0 0 C5.875 0.875 5.875 0.875 7 2 C7.04063832 3.66617115 7.042721 5.33388095 7 7 C5.68 6.67 4.36 6.34 3 6 C3 5.01 3 4.02 3 3 C1.68 3 0.36 3 -1 3 C-0.67 2.01 -0.34 1.02 0 0 Z " fill="#090909" transform="translate(168,281)"/>
<path d="M0 0 C0.99 0 1.98 0 3 0 C3.33 1.65 3.66 3.3 4 5 C2.125 6.0625 2.125 6.0625 0 7 C-0.66 6.67 -1.32 6.34 -2 6 C-1.34 4.02 -0.68 2.04 0 0 Z " fill="#2A2A2A" transform="translate(233,281)"/>
<path d="M0 0 C2.00720923 0.28674418 4.0085944 0.61866701 6 1 C6.33 2.98 6.66 4.96 7 7 C5.68 6.67 4.36 6.34 3 6 C3 5.01 3 4.02 3 3 C1.68 2.34 0.36 1.68 -1 1 C-0.67 0.67 -0.34 0.34 0 0 Z " fill="#0F0F0F" transform="translate(350,193)"/>
<path d="M0 0 C2.00720923 0.28674418 4.0085944 0.61866701 6 1 C6.33 2.98 6.66 4.96 7 7 C5.68 6.67 4.36 6.34 3 6 C3 5.01 3 4.02 3 3 C1.68 2.34 0.36 1.68 -1 1 C-0.67 0.67 -0.34 0.34 0 0 Z " fill="#0F0F0F" transform="translate(322,193)"/>
<path d="M0 0 C2.31 0.33 4.62 0.66 7 1 C6.67 2.32 6.34 3.64 6 5 C3.69 4.34 1.38 3.68 -1 3 C-0.67 2.01 -0.34 1.02 0 0 Z " fill="#191919" transform="translate(190,277)"/>
<path d="M0 0 C0.99 0 1.98 0 3 0 C2.34 2.64 1.68 5.28 1 8 C0.01 7.67 -0.98 7.34 -2 7 C-1.125 1.125 -1.125 1.125 0 0 Z " fill="#1A1A1A" transform="translate(340,193)"/>
<path d="M0 0 C2.97 0 5.94 0 9 0 C6 3 6 3 3.3125 3.1875 C2.1678125 3.0946875 2.1678125 3.0946875 1 3 C0.67 2.01 0.34 1.02 0 0 Z " fill="#BFBFBF" transform="translate(348,200)"/>
<path d="M0 0 C2.97 0 5.94 0 9 0 C6 3 6 3 3.3125 3.1875 C2.1678125 3.0946875 2.1678125 3.0946875 1 3 C0.67 2.01 0.34 1.02 0 0 Z " fill="#BFBFBF" transform="translate(320,200)"/>
<path d="M0 0 C2.64 0 5.28 0 8 0 C6.8125 1.5 6.8125 1.5 5 3 C2.3125 3.1875 2.3125 3.1875 0 3 C0 2.01 0 1.02 0 0 Z " fill="#C6C6C6" transform="translate(167,288)"/>
<path d="M0 0 C0.99 0 1.98 0 3 0 C2.67 2.64 2.34 5.28 2 8 C1.01 7.34 0.02 6.68 -1 6 C-0.67 4.02 -0.34 2.04 0 0 Z " fill="#252525" transform="translate(240,281)"/>
<path d="M0 0 C1.65 0 3.3 0 5 0 C5 0.99 5 1.98 5 3 C3.02 3 1.04 3 -1 3 C-0.67 2.01 -0.34 1.02 0 0 Z " fill="#8D8D8D" transform="translate(349,196)"/>
<path d="M0 0 C1.65 0 3.3 0 5 0 C5 0.99 5 1.98 5 3 C3.02 3 1.04 3 -1 3 C-0.67 2.01 -0.34 1.02 0 0 Z " fill="#8D8D8D" transform="translate(321,196)"/>
</svg>
